# xmcd
#
# Track frame offsets:
#	150
#	11409
#	21656
#	34820
#	45182
#	60180
#	70238
#	82550
#	94022
#	104848
#	117099
#	128945
#	138868
#	152784
#	164980
#
# Disc length: 2279 seconds
#
# Revision: 1
# Processed by: cddbd v1.5.2PL0 Copyright (c) Steve Scherf et al.
# Submitted via: audiograbber 1.83.01
#
DISCID=be08e50f
DTITLE=Miscaleneous - Simply Country live
DYEAR=1900
DGENRE=Country
TTITLE0=Patsy Cline - A strangr in my arms
TTITLE1=Johnny Cash - The ways of a woman in love
TTITLE2=Kenny Rodgers - Ruby, don't take your love to town
TTITLE3=Dolly Parton - Release me
TTITLE4=Anne Murray - Both sides now
TTITLE5=Billie Joe Spears - My arms stay open late
TTITLE6=Carl Perkins - Sweethearts or strangers
TTITLE7=Conway Twitty - Broken heart
TTITLE8=Don Williams and the Pozo Seco singers - Spend some time with me
TTITLE9=Roy Aucuff - Blue eyes crying in the rain
TTITLE10=Waylon Jennings - Crying
TTITLE11=Willie Nelson - Healing hands of time
TTITLE12=Jerry Lee Lewis - I love you because
TTITLE13=David Allan Coe - Mississippi woman
TTITLE14=Jim Reeves - Have I told you lately that I love you
EXTD=
EXTT0=
EXTT1=
EXTT2=
EXTT3=
EXTT4=
EXTT5=
EXTT6=
EXTT7=
EXTT8=
EXTT9=
EXTT10=
EXTT11=
EXTT12=
EXTT13=
EXTT14=
PLAYORDER=
